# xmcd
#
# Track frame offsets:
#	150
#	12503
#	32833
#	49990
#	68686
#	85801
#	104940
#	124458
#	140045
#	160077
#	179403
#	194679
#	219741
#	239441
#	259665
#
# Disc length: 3770 seconds
#
# Revision: 0
# Processed by: cddbd v1.5.2PL0 Copyright (c) Steve Scherf et al.
# Submitted via: audiograbber 1.83.01
#
DISCID=ec0eb80f
DTITLE=MASTERMIX - MASTERMIX DJ BEATS 37 2015 Dez. ORIG CD
DYEAR=2015
DGENRE=MASTERMIX DJ 
TTITLE0=CHUBBY CHECKER - Let's Twist Again  MASTERMIX DJ BEATS 37
TTITLE1=ROSE ROYCE - Is It Love You're After
TTITLE2=MICHAEL JACKSON - Black Or White MASTERMIX DJ BEATS 37
TTITLE3=UB40 - Kingston Town  MASTERMIX DJ BEATS 37
TTITLE4=THE BEATMASTERS FEAT. BETTY BOO - Hey DJ
TTITLE5=URBAN COOKIE COLLECTIVE - Feels Like Heaven
TTITLE6=BLACK BOX - Fantasy
TTITLE7=ELVIS COSTELLO and THE ATTRACTIONS - Oliver's Army
TTITLE8=DONNA SUMMER - Bad Girls
TTITLE9=S´EXPRESS - Theme From S'Express  MASTERMIX DJ BEATS 37
TTITLE10=INXS - Need You Tonight MASTERMIX DJ BEATS 37
TTITLE11=BLONDIE - Rapture
TTITLE12=ERASURE - Sometimes MASTERMIX DJ BEATS 37
TTITLE13=BRONSKI BEAT - Why?
TTITLE14=U2 - Even Better Than The Real Thing
EXTD=
EXTT0=
EXTT1=
EXTT2=
EXTT3=
EXTT4=
EXTT5=
EXTT6=
EXTT7=
EXTT8=
EXTT9=
EXTT10=
EXTT11=
EXTT12=
EXTT13=
EXTT14=
PLAYORDER=
